<?xml version="1.0" encoding="UTF-8"?>
<svg id="_レイヤー_1" data-name="レイヤー 1" xmlns="http://www.w3.org/2000/svg" viewBox="0 0 527.24 198.79">
  <defs>
    <style>
      .cls-1 {
        fill: #fff;
      }

      .cls-2 {
        fill: #fff;
      }
    </style>
  </defs>
  <g>
    <path class="cls-2" d="m127.25,15.51c5.94,2.19,13.58,6.47,21.44,12.35l-29.49,4.09.42,7.34c7.35-.77,37.77-1.34,40.9-1.39,6.56,6.3,12.74,13.58,17.61,21.6l11.37-6.45s-19.09-35.09-53.87-46.94C115.18-.84,88.01-3.94,59.38,8.28l3.91,7.46s27.36-13.7,63.96-.23Z"/>
    <path class="cls-2" d="m19.57,68.38l24.12,32.5,7-5.69c-8.49-13.05-19.31-34.37-22.87-41.51,11.59-16.16,25.92-23.24,25.92-23.24l-11.55-12.42S2.59,41.92.12,93.69c-2.7,56.53,40.49,85.96,40.49,85.96l4.68-5.84c-24.5-28-31.13-51.08-31.86-70.56-.52-13.74,2.07-25.29,6.14-34.87Z"/>
    <path class="cls-2" d="m196.3,77.42l-7.3,1.42s7.68,58.82-38.1,86.93c-13.43,8.25-26.17,12.5-37.63,14.33l19.2-47.32-7.91-2.22c-6.59,9.94-29.95,42.86-35.11,50.13-17.77-1.95-28.89-8.64-28.89-8.64l-7.02,15.69s52.23,29.55,104.5-8.05c54.77-39.4,38.26-102.28,38.26-102.28Z"/>
    <path class="cls-2" d="m133.63,162.23c30.27-4.72,28.09-33.96,28.09-33.96-30.45,5.8-28.09,33.96-28.09,33.96Z"/>
    <path class="cls-2" d="m121.26,21.41s-21.56-11.99-37.16,6.81c0,0,20.81,10.78,37.16-6.81Z"/>
    <path class="cls-2" d="m38.84,124.95c4.41-25.82-17.26-32.88-17.26-32.88-4.58,25.14,17.26,32.88,17.26,32.88Z"/>
    <path class="cls-2" d="m177.21,87.46c0-11.74-9.52-21.26-21.26-21.26-1.38,0-2.73.14-4.04.39-1.22-10.59-10.2-18.81-21.12-18.81s-19.9,8.22-21.12,18.81c-1.31-.25-2.66-.39-4.04-.39-11.74,0-21.26,9.52-21.26,21.26,0,9.69,6.48,17.86,15.34,20.42,1,9.63,9.14,17.15,19.03,17.15,4.57,0,8.76-1.6,12.05-4.27,3.29,2.67,7.48,4.27,12.05,4.27,9.9,0,18.04-7.51,19.03-17.15,8.86-2.56,15.34-10.73,15.34-20.42Zm-46.86,13.72c-9.14-11.43-21.99-15.23-21.99-15.23,0,0,7.79-14.02,22.46-14.02s22.93,14.02,22.93,14.02c-15.64,5.24-23.41,15.23-23.41,15.23Z"/>
    <circle class="cls-2" cx="130.82" cy="80.71" r="4.38"/>
    <circle class="cls-2" cx="120.27" cy="83.89" r="3.23"/>
    <circle class="cls-2" cx="141.15" cy="83.89" r="3.23"/>
    <path class="cls-2" d="m45.36,51.86c-1.34,4.13.92,8.56,5.04,9.9.48.16.96.26,1.44.32-.38.35-.73.74-1.05,1.18-2.55,3.51-1.77,8.42,1.74,10.97,3.51,2.55,8.42,1.77,10.97-1.74.3-.41.54-.83.75-1.27.21.47.48.93.79,1.36,2.55,3.51,7.46,4.29,10.97,1.74,3.51-2.55,4.29-7.46,1.74-10.97-.3-.41-.62-.77-.98-1.11.51-.06,1.03-.17,1.54-.34,4.13-1.34,6.39-5.77,5.04-9.9-1.34-4.13-5.77-6.39-9.9-5.04-.48.16-.93.35-1.35.59.1-.51.16-1.03.16-1.57,0-4.34-3.52-7.86-7.86-7.86s-7.86,3.52-7.86,7.86c0,.5.05.99.14,1.47-.45-.25-.93-.47-1.44-.63-4.13-1.34-8.56.92-9.9,5.04Zm23.42,2.88c.86-.28,1.79.19,2.07,1.05s-.19,1.79-1.05,2.07c-.86.28-1.79-.19-2.07-1.05s.19-1.79,1.05-2.07Zm-.02,6.31c.53.73.37,1.76-.36,2.29-.73.53-1.76.37-2.29-.36-.53-.73-.37-1.76.36-2.29.73-.53,1.76-.37,2.29.36Zm-4.33-9.93c.91,0,1.64.73,1.64,1.64s-.73,1.64-1.64,1.64-1.64-.73-1.64-1.64.73-1.64,1.64-1.64Zm-1.68,11.86c-.53.73-1.56.9-2.29.36-.73-.53-.9-1.56-.36-2.29.53-.73,1.56-.9,2.29-.36.73.53.9,1.56.36,2.29Zm-4.75-7.19c.28-.86,1.21-1.33,2.07-1.05s1.33,1.21,1.05,2.07-1.21,1.33-2.07,1.05c-.86-.28-1.33-1.21-1.05-2.07Z"/>
    <path class="cls-2" d="m55.69,156.29c4.48,3.26,10.76,2.26,14.02-2.22.38-.52.69-1.06.96-1.62.27.6.61,1.18,1.01,1.74,3.26,4.48,9.53,5.48,14.02,2.22,4.48-3.26,5.48-9.53,2.22-14.02-.38-.52-.8-.99-1.25-1.41.66-.08,1.31-.22,1.97-.43,5.27-1.71,8.16-7.37,6.44-12.64-1.71-5.27-7.37-8.16-12.64-6.44-.61.2-1.19.45-1.73.75.13-.65.2-1.32.2-2,0-5.54-4.49-10.03-10.03-10.03s-10.03,4.49-10.03,10.03c0,.64.06,1.27.18,1.88-.57-.32-1.19-.6-1.84-.81-5.27-1.71-10.93,1.17-12.64,6.44-1.71,5.27,1.17,10.93,6.44,12.64.61.2,1.23.33,1.84.41-.49.45-.94.95-1.34,1.5-3.26,4.48-2.26,10.76,2.22,14.02Zm20.74-24.9c1.1-.36,2.28.24,2.64,1.35.36,1.1-.24,2.28-1.35,2.64-1.1.36-2.28-.24-2.64-1.35-.36-1.1.24-2.28,1.35-2.64Zm-2.96,7.6c.94-.68,2.25-.47,2.93.46s.47,2.25-.46,2.93c-.94.68-2.25.47-2.93-.46s-.47-2.25.46-2.93Zm-2.61-12.22c1.16,0,2.1.94,2.1,2.1s-.94,2.1-2.1,2.1-2.1-.94-2.1-2.1.94-2.1,2.1-2.1Zm-2.61,12.22c.94.68,1.14,1.99.46,2.93s-1.99,1.14-2.93.46c-.94-.68-1.14-1.99-.46-2.93s1.99-1.14,2.93-.46Zm-5.6-6.25c.36-1.1,1.54-1.7,2.64-1.35,1.1.36,1.7,1.54,1.35,2.64-.36,1.1-1.54,1.7-2.64,1.35-1.1-.36-1.7-1.54-1.35-2.64Z"/>
  </g>
  <g>
    <path class="cls-1" d="m331.29,159.43c-1.62-.29-2.95-1.89-2.95-3.54v-1.35c0-1.65,1.33-3.22,2.96-3.49l17.05-2.84c1.63-.27,2.99-1.39,3.04-2.48s-1.27-1.99-2.92-1.99h-37.33c-1.65,0-3.25,1.33-3.55,2.95l-.44,2.37c-.3,1.62-1.89,2.79-3.52,2.59l-6.75-.81c-1.64-.2-2.82-1.7-2.62-3.34,0,0,1.2-10.06,1.87-16.54.66-6.48,1.51-16.38,1.51-16.38.14-1.64-1.1-2.99-2.75-2.99h-3.8c-1.65,0-3.35-1.3-3.78-2.9l-1.5-5.54c-.43-1.59.56-2.99,2.21-3.1l7.79-.52c1.65-.11,3.08-1.55,3.19-3.19l1.51-27.54c.07-1.65-.78-2.19-1.89-1.21s-5.23,2.79-6.4,1.66-2.14-.76-2.14.84-1.35,2.91-3,2.91h-6.56c-1.65,0-3.04,1.35-3.09,3l-.13,4.57c-.05,1.65.65,1.87,1.56.49,0,0,.4-.6,2.03-1.63,1.63-1.02,3.42-1.53,5.36-1.53,2.76,0,5.1.97,7.04,2.91,1.94,1.94,2.91,4.29,2.91,7.04s-.97,5.11-2.91,7.04c-1.94,1.94-4.29,2.91-7.04,2.91-2.04,0-3.88-.56-5.51-1.68-1.63-1.12-2.05-1.77-2.05-1.77-.89-1.39-1.65-1.17-1.69.48l-1.4,64.9c-.04,1.65-1.39,3.27-3.01,3.59l-9.28,1.87c-1.62.33-2.94-.76-2.94-2.41v-61.37c0-1.65-.57-1.78-1.28-.29l-10.49,20.97c-.77,1.46-2.49,1.85-3.81.87l-2.22-1.64c-1.33-.98-1.9-3.03-1.28-4.56,0,0,5.02-12.33,7.52-19.88,2.5-7.55,6.18-20.99,6.18-20.99.44-1.59-.56-2.89-2.21-2.89h-4.41c-1.65,0-3.29-1.32-3.65-2.93l-1.76-7.92c-.36-1.61.69-3.05,2.34-3.21l12.09-1.13c1.64-.15,2.99-1.63,2.99-3.28v-23.4c0-1.65,1.33-2.78,2.96-2.5l12.3,2.07c1.63.27,2.92,1.85,2.88,3.5l-.46,18.65c-.04,1.65,1.27,2.86,2.91,2.7l6.13-.62c1.64-.17,2.98,1.05,2.98,2.7v1.35c0,1.65.71,1.85,1.58.45,0,0,1.41-2.27,3.4-5.79,1.99-3.52,4.06-7.48,6.2-11.87,2.14-4.39,4.37-10.79,4.37-10.79.54-1.56,2.29-2.5,3.89-2.1l14.7,3.73c1.6.41,2.27,1.93,1.49,3.38,0,0-.32.6-1.34,2.18-1.02,1.58-1.42,2.11-1.42,2.11-.99,1.32-.45,2.28,1.19,2.14l49.45-4.37c1.64-.15,2.99,1.09,2.99,2.74v12.68c0,1.65-1.35,3-3,3h-60.61c-1.65,0-3.94.97-5.1,2.15l-1.93,1.98c-1.15,1.18-.75,2.15.9,2.15h9.16c1.65,0,2.93,1.03,2.85,2.3s1.19,2.18,2.84,2.04l47.31-4.08c1.64-.14,2.92,1.09,2.83,2.74l-1.37,25.86c-.09,1.65,1.19,2.91,2.84,2.81l1.51-.09c1.65-.1,2.99,1.17,2.99,2.82v11.46c0,1.65-1.35,3-3,3h-2.42c-1.65,0-3.08,1.35-3.17,2.99l-.57,9.78c-.1,1.65,1.17,2.88,2.81,2.73l.91-.08c1.64-.15,2.99,1.08,2.99,2.73v11c0,1.65-1.35,3-3,3h-1.81c-1.65,0-3.07,1.35-3.17,3l-.89,16.06c-.09,1.65-1.49,2.75-3.12,2.46l-32.07-5.82Zm-11-27.85c1.64-.13,3.11-1.59,3.25-3.23,0,0,.33-3.72.58-7.04.25-3.32.49-6.73.49-6.73.11-1.65-1.15-2.99-2.8-2.99h-5.33c-1.65,0-3.18,1.34-3.4,2.97,0,0-.52,3.82-1.13,7.29-.61,3.47-1.33,7.61-1.33,7.61-.28,1.63.84,2.85,2.48,2.71l7.19-.58Zm6.08-49c.07-1.65-1.22-3-2.87-3h-3.03c-1.65,0-3.14,1.34-3.3,2.98,0,0-.31,3.01-.61,6.13-.31,3.11-.8,6.6-.8,6.6-.23,1.63.92,2.89,2.57,2.79l4.42-.26c1.65-.1,3.05-1.52,3.12-3.17l.51-12.07Zm25.62,32c.04-1.65-1.27-3-2.92-3h-6.86c-1.65,0-3.19,1.34-3.43,2.97,0,0-.49,3.34-1.1,6.45-.61,3.11-1.17,6.31-1.17,6.31-.28,1.63.83,2.84,2.47,2.69l9.64-.85c1.64-.15,3.02-1.61,3.07-3.26l.3-11.3Zm.76-32c.05-1.65-1.27-3-2.92-3h-3.19c-1.65,0-3.15,1.34-3.33,2.98,0,0-.3,2.71-.66,5.52-.36,2.81-.74,5.53-.74,5.53-.23,1.63.93,2.88,2.58,2.76l4.89-.34c1.65-.12,3.03-1.56,3.08-3.21l.29-10.23Z"/>
    <path class="cls-1" d="m422.9,70.85c-1.65,0-3,.1-3,.23s-.06,1.58-.13,3.23c0,0-1.38,31.99-4.39,47.15-3.01,15.16-12.94,41.07-12.94,41.07-.59,1.54-2.25,2.14-3.69,1.33l-3.19-1.8c-1.44-.81-2.33-2.79-1.98-4.41,0,0,3.5-16.16,4.72-25.55,1.23-9.39,2.07-19.14,2.53-29.25.46-10.11.66-29.31.66-29.31.02-1.65.03-4.35.03-6v-31.97c0-1.65,1.35-3,3-3h12.37c1.65,0,3,1.34,3,2.99s1.35,2.91,3,2.81l97.37-5.63c1.65-.1,2.9,1.17,2.78,2.82l-2.33,32.3c-.12,1.65-1.57,2.99-3.22,2.99h-94.6Zm-3.37,92.64c-1.65,0-3.34-1.31-3.75-2.91l-1.55-5.98c-.41-1.6.59-2.98,2.24-3.08l42.09-2.41c1.65-.09,3-1.52,3-3.17v-1.5c0-1.65-1.35-3-3-3h-30.44c-1.65,0-3.36-1.3-3.8-2.89l-1.46-5.24c-.44-1.59.54-2.97,2.19-3.06l33.52-1.95c1.65-.1,2.99-1.52,2.99-3.17v-1.96c0-1.65-1.34-2.8-2.97-2.57,0,0-6.63.97-12.34,1.63-5.72.67-14.17,1.7-14.17,1.7-1.64.2-3.26-.95-3.61-2.57l-2.41-11.13c-.35-1.61.72-2.93,2.37-2.93h5.27c2.65,0,4.81-.06,4.81-.06,1.65-.05,3.77-1.19,4.72-2.54,0,0,1.16-1.65,2.64-4.05,1.48-2.4,2.69-4.76,2.69-4.76.75-1.47.02-2.67-1.63-2.67h-20.34c-1.65,0-3.36-1.3-3.8-2.89l-1.46-5.24c-.44-1.59.54-2.97,2.19-3.07l97.21-5.77c1.65-.1,2.99,1.17,2.99,2.82v11.15c0,1.65-1.35,3-3,3h-45.3c-1.65,0-3.95.95-5.12,2.12,0,0-3.08,3.08-5.84,5.53-2.76,2.45-5.64,4.43-5.64,4.43-1.36.93-1.12,1.66.52,1.62,0,0,12.59-.33,18.67-.53,6.07-.2,11.78-.37,11.78-.37,1.65-.05,3.58-1.31,4.28-2.8,0,0,1.09-2.31,3.39-4.1,2.3-1.78,4.87-2.68,7.73-2.68,3.57,0,6.61,1.25,9.11,3.75,2.5,2.5,3.75,5.54,3.75,9.11s-1.25,6.48-3.75,9.03c-2.5,2.55-5.54,3.83-9.11,3.83-2.55,0-4.9-.71-7.04-2.14-2.14-1.43-3.13-2.98-3.13-2.98-.89-1.39-2.94-2.29-4.57-2,0,0-3.66.65-7.69,1.47-4.03.82-11.97,2.12-11.97,2.12-1.63.27-1.62.6.03.74l6.58.56c1.64.14,2.87,1.6,2.72,3.24l-.08.91c-.15,1.64,1.08,2.91,2.73,2.82l33.05-1.81c1.65-.09,3,1.19,3,2.84v10.54c0,1.65-1.35,3-3,3h-33.96c-1.65,0-3.09,1.35-3.21,2.99l-.04.6c-.11,1.65,1.14,2.92,2.79,2.82l42.85-2.42c1.65-.09,3,1.18,3,2.83v12.37c0,1.65-1.35,3-3,3l-104.71-.14Zm85.2-111.32c0-1.52-1.35-2.76-3-2.76h-78.83c-1.65,0-3,1.35-3,3v4.72c0,1.65,1.35,2.92,2.99,2.82l78.84-4.84c1.65-.1,2.99-1.42,2.99-2.94Z"/>
  </g>
</svg>