<svg xmlns="http://www.w3.org/2000/svg" width="128" height="128" viewBox="0 0 128 128" fill="none"><defs><filter id="tint" color-interpolation-filters="sRGB"><feFlood flood-color="#c21244" result="flood"/><feBlend mode="multiply" in="SourceGraphic" in2="flood" result="blend"/><feComposite in="blend" in2="SourceGraphic" operator="in"/></filter></defs><g filter="url(#tint)">
  <path fill-rule="evenodd" d="M38 12 L50 12 L50 26 L78 26 L78 12 L90 12 L90 26 L110 26 L110 116 L18 116 L18 26 L38 26 Z M26 42 L102 42 L102 108 L26 108 Z M38 51 L48 51 L48 61 L38 61 Z M59 51 L69 51 L69 61 L59 61 Z M80 51 L90 51 L90 61 L80 61 Z M38 70 L48 70 L48 80 L38 80 Z M59 70 L69 70 L69 80 L59 80 Z M80 70 L90 70 L90 80 L80 80 Z M38 89 L48 89 L48 99 L38 99 Z M59 89 L69 89 L69 99 L59 99 Z M80 89 L90 89 L90 99 L80 99 Z" fill="white"/>
</g></svg>