<?xml version="1.0" encoding="UTF-8"?>
<svg id="_レイヤー_1" data-name="レイヤー 1" xmlns="http://www.w3.org/2000/svg" viewBox="0 0 321 321">
  <defs>
    <style>
      .cls-1 {
        fill: #fff;
      }

      .cls-2 {
        fill: none;
      }

      .cls-3 {
        fill: #fff;
      }
    </style>
  </defs>
  <g>
    <g>
      <path class="cls-3" d="m188.43,36.81c5.94,2.19,13.58,6.47,21.44,12.35l-29.49,4.09.42,7.34c7.35-.77,37.77-1.34,40.9-1.39,6.56,6.3,12.74,13.58,17.61,21.6l11.37-6.45s-19.09-35.09-53.87-46.94c-20.43-6.96-47.61-10.05-76.24,2.17l3.91,7.46s27.36-13.7,63.96-.23Z"/>
      <path class="cls-3" d="m80.75,89.68l24.12,32.5,7-5.69c-8.49-13.05-19.31-34.37-22.87-41.51,11.59-16.16,25.92-23.24,25.92-23.24l-11.55-12.42s-39.6,23.89-42.07,75.66c-2.7,56.53,40.49,85.96,40.49,85.96l4.68-5.84c-24.5-28-31.13-51.08-31.86-70.56-.52-13.74,2.07-25.29,6.14-34.87Z"/>
      <path class="cls-3" d="m257.48,98.72l-7.3,1.42s7.68,58.82-38.1,86.93c-13.43,8.25-26.17,12.5-37.63,14.33l19.2-47.32-7.91-2.22c-6.59,9.94-29.95,42.86-35.11,50.13-17.77-1.95-28.89-8.64-28.89-8.64l-7.02,15.69s52.23,29.55,104.5-8.05c54.77-39.4,38.26-102.28,38.26-102.28Z"/>
      <path class="cls-3" d="m194.82,183.53c30.27-4.72,28.09-33.96,28.09-33.96-30.45,5.8-28.09,33.96-28.09,33.96Z"/>
      <path class="cls-3" d="m182.44,42.71s-21.56-11.99-37.16,6.81c0,0,20.81,10.78,37.16-6.81Z"/>
      <path class="cls-3" d="m100.02,146.26c4.41-25.82-17.26-32.88-17.26-32.88-4.58,25.14,17.26,32.88,17.26,32.88Z"/>
      <path class="cls-3" d="m238.39,108.76c0-11.74-9.52-21.26-21.26-21.26-1.38,0-2.73.14-4.04.39-1.22-10.59-10.2-18.81-21.12-18.81s-19.9,8.22-21.12,18.81c-1.31-.25-2.66-.39-4.04-.39-11.74,0-21.26,9.52-21.26,21.26,0,9.69,6.48,17.86,15.34,20.42,1,9.63,9.14,17.15,19.03,17.15,4.57,0,8.76-1.6,12.05-4.27,3.29,2.67,7.48,4.27,12.05,4.27,9.9,0,18.04-7.51,19.03-17.15,8.86-2.56,15.34-10.73,15.34-20.42Zm-46.86,13.72c-9.14-11.43-21.99-15.23-21.99-15.23,0,0,7.79-14.02,22.46-14.02s22.93,14.02,22.93,14.02c-15.64,5.24-23.41,15.23-23.41,15.23Z"/>
      <circle class="cls-3" cx="192" cy="102.02" r="4.38"/>
      <circle class="cls-3" cx="181.45" cy="105.2" r="3.23"/>
      <circle class="cls-3" cx="202.34" cy="105.2" r="3.23"/>
      <path class="cls-3" d="m106.54,73.16c-1.34,4.13.92,8.56,5.04,9.9.48.16.96.26,1.44.32-.38.35-.73.74-1.05,1.18-2.55,3.51-1.77,8.42,1.74,10.97,3.51,2.55,8.42,1.77,10.97-1.74.3-.41.54-.83.75-1.27.21.47.48.93.79,1.36,2.55,3.51,7.46,4.29,10.97,1.74,3.51-2.55,4.29-7.46,1.74-10.97-.3-.41-.62-.77-.98-1.11.51-.06,1.03-.17,1.54-.34,4.13-1.34,6.39-5.77,5.04-9.9-1.34-4.13-5.77-6.39-9.9-5.04-.48.16-.93.35-1.35.59.1-.51.16-1.03.16-1.57,0-4.34-3.52-7.86-7.86-7.86s-7.86,3.52-7.86,7.86c0,.5.05.99.14,1.47-.45-.25-.93-.47-1.44-.63-4.13-1.34-8.56.92-9.9,5.04Zm23.42,2.88c.86-.28,1.79.19,2.07,1.05s-.19,1.79-1.05,2.07c-.86.28-1.79-.19-2.07-1.05s.19-1.79,1.05-2.07Zm-.02,6.31c.53.73.37,1.76-.36,2.29-.73.53-1.76.37-2.29-.36-.53-.73-.37-1.76.36-2.29.73-.53,1.76-.37,2.29.36Zm-4.33-9.93c.91,0,1.64.73,1.64,1.64s-.73,1.64-1.64,1.64-1.64-.73-1.64-1.64.73-1.64,1.64-1.64Zm-1.68,11.86c-.53.73-1.56.9-2.29.36-.73-.53-.9-1.56-.36-2.29.53-.73,1.56-.9,2.29-.36.73.53.9,1.56.36,2.29Zm-4.75-7.19c.28-.86,1.21-1.33,2.07-1.05s1.33,1.21,1.05,2.07-1.21,1.33-2.07,1.05c-.86-.28-1.33-1.21-1.05-2.07Z"/>
      <path class="cls-3" d="m116.87,177.6c4.48,3.26,10.76,2.26,14.02-2.22.38-.52.69-1.06.96-1.62.27.6.61,1.18,1.01,1.74,3.26,4.48,9.53,5.48,14.02,2.22,4.48-3.26,5.48-9.53,2.22-14.02-.38-.52-.8-.99-1.25-1.41.66-.08,1.31-.22,1.97-.43,5.27-1.71,8.16-7.37,6.44-12.64-1.71-5.27-7.37-8.16-12.64-6.44-.61.2-1.19.45-1.73.75.13-.65.2-1.32.2-2,0-5.54-4.49-10.03-10.03-10.03s-10.03,4.49-10.03,10.03c0,.64.06,1.27.18,1.88-.57-.32-1.19-.6-1.84-.81-5.27-1.71-10.93,1.17-12.64,6.44-1.71,5.27,1.17,10.93,6.44,12.64.61.2,1.23.33,1.84.41-.49.45-.94.95-1.34,1.5-3.26,4.48-2.26,10.76,2.22,14.02Zm20.74-24.9c1.1-.36,2.28.24,2.64,1.35.36,1.1-.24,2.28-1.35,2.64-1.1.36-2.28-.24-2.64-1.35-.36-1.1.24-2.28,1.35-2.64Zm-2.96,7.6c.94-.68,2.25-.47,2.93.46s.47,2.25-.46,2.93c-.94.68-2.25.47-2.93-.46s-.47-2.25.46-2.93Zm-2.61-12.22c1.16,0,2.1.94,2.1,2.1s-.94,2.1-2.1,2.1-2.1-.94-2.1-2.1.94-2.1,2.1-2.1Zm-2.61,12.22c.94.68,1.14,1.99.46,2.93s-1.99,1.14-2.93.46c-.94-.68-1.14-1.99-.46-2.93s1.99-1.14,2.93-.46Zm-5.6-6.25c.36-1.1,1.54-1.7,2.64-1.35,1.1.36,1.7,1.54,1.35,2.64-.36,1.1-1.54,1.7-2.64,1.35-1.1-.36-1.7-1.54-1.35-2.64Z"/>
    </g>
    <g>
      <path class="cls-1" d="m143.61,297.32c-1.62-.29-2.95-1.24-2.95-2.09s1.33-1.78,2.96-2.05l3.8-.63c1.63-.27,2.97-.87,2.99-1.34s-1.32-.84-2.97-.84h-12.34c-1.65,0-3.15.79-3.32,1.75s-1.53,1.6-3.01,1.43-2.53-1.66-2.33-3.3c0,0,.3-2.54.58-5.28.28-2.74.49-5.21.49-5.21.14-1.64-.68-2.99-1.82-2.99s-2.37-1.08-2.72-2.4.66-2.49,2.27-2.59,3.01-1.54,3.12-3.19l.45-8.2c.07-1.65-.26-2.66-.73-2.24s-2.21,1.18-2.71.7-.91-.32-.91.36-1.2,1.23-2.66,1.23-2.69,1.01-2.72,2.24.32,1.64.8.92l.69-.43c.69-.43,1.45-.65,2.27-.65,1.17,0,2.16.41,2.98,1.23.82.82,1.23,1.81,1.23,2.98s-.41,2.16-1.23,2.98c-.82.82-1.81,1.23-2.98,1.23-.86,0-1.64-.24-2.33-.71l-.69-.47c-.48-.74-.89,0-.93,1.66l-.52,24.01c-.04,1.65-1.39,3.27-3.01,3.59l-.53.11c-1.62.33-2.94-.76-2.94-2.41v-22.52c0-1.65-.57-1.78-1.28-.29l-2.9,5.78c-.77,1.46-2.07,2.16-2.89,1.55s-.98-2.35-.36-3.88c0,0,1.47-3.61,2.53-6.81,1.06-3.2,2.16-7.22,2.16-7.22.44-1.59-.2-2.89-1.41-2.89s-2.5-1.31-2.85-2.92.7-3.04,2.34-3.19l1.67-.16c1.64-.15,2.99-1.63,2.99-3.28v-6.44c0-1.65,1.33-2.78,2.96-2.5l1.8.3c1.63.27,2.92,1.85,2.88,3.5l-.11,4.44c-.04,1.65,1.08,2.88,2.49,2.74s2.56.44,2.56,1.3.57.64,1.26-.49l.84-1.49c.84-1.49,1.72-3.16,2.62-5.02.91-1.86,1.28-2.93,1.28-2.93.54-1.56,2.29-2.5,3.89-2.1l2.87.73c1.6.41,2.58,1.36,2.17,2.11l-.43.67-.43.67c-.51.68.42,1.12,2.06.98l17.48-1.55c1.64-.15,2.99,1.09,2.99,2.74v1.91c0,1.65-1.35,3-3,3h-22.19c-1.65,0-3.58.6-4.3,1.33s.05,1.33,1.7,1.33h.42c1.65,0,2.97.44,2.94.97s1.28.86,2.92.71l16.58-1.43c1.64-.14,2.92,1.09,2.83,2.74l-.4,7.49c-.09,1.65.56,2.95,1.43,2.9s1.59,1.25,1.59,2.9v1.39c0,1.65-.8,3-1.78,3s-1.86,1.35-1.96,2.99l-.04.69c-.1,1.65.48,2.94,1.28,2.87s1.46,1.22,1.46,2.87v1.19c0,1.65-.74,3-1.65,3s-1.73,1.35-1.82,3l-.19,3.34c-.09,1.65-1.49,2.75-3.12,2.46l-10.17-1.85Zm-7.88-11.97c1.53-.12,2.9-1.5,3.03-3.07l.11-1.4.11-1.4c.1-1.49-.89-2.71-2.21-2.71s-2.57,1.29-2.79,2.87l-.26,1.47c-.26,1.47-.27,1.52-.27,1.52-.28,1.63.74,2.85,2.28,2.73Zm4.02-19.13c.07-1.65-.73-3-1.78-3s-2.03,1.14-2.17,2.54l-.13,1.32-.13,1.32c-.21,1.5.6,2.67,1.81,2.6s2.26-1.48,2.33-3.13l.07-1.65Zm10.87,13.55c.04-1.65-1.15-3-2.64-3s-2.9,1.2-3.11,2.67l-.26,1.32-.26,1.32c-.25,1.43.89,2.48,2.53,2.34l.63-.06c1.64-.15,3.02-1.61,3.07-3.26l.04-1.33Zm.32-13.54c.05-1.65-.79-3-1.86-3s-2.07,1.08-2.21,2.41l-.15,1.19-.15,1.19c-.18,1.32.7,2.34,1.97,2.25s2.34-1.51,2.39-3.16l.02-.87Z"/>
      <path class="cls-1" d="m182.41,259.52c-1.65,0-3,.04-3,.1s-.06,1.45-.13,3.09c0,0-.51,11.81-1.78,18.23-1.27,6.42-4.86,15.77-4.86,15.77-.59,1.54-1.88,2.35-2.86,1.8s-1.5-2.32-1.15-3.94c0,0,1.11-5.15,1.63-9.12.52-3.97.87-8.1,1.07-12.38.19-4.28.26-10.67.26-10.67.02-1.65.03-4.35.03-6v-10.07c0-1.65,1.35-3,3-3h1.78c1.65,0,3,.57,3,1.26s1.35,1.19,3,1.09l37.75-2.18c1.65-.1,2.9,1.17,2.78,2.82l-.74,10.22c-.12,1.65-1.57,2.99-3.22,2.99h-36.58Zm-1.43,39.21c-1.65,0-3.29-1.13-3.65-2.5s.7-2.57,2.35-2.67l14.36-.82c1.65-.09,3-.89,3-1.76s-1.35-1.59-3-1.59h-9.42c-1.65,0-3.29-1.05-3.65-2.33s.7-2.41,2.35-2.51l10.73-.62c1.65-.1,2.99-.93,2.99-1.86s-1.34-1.49-2.97-1.25c0,0-1.09.16-3.51.44-2.42.28-4.28.51-4.28.51-1.64.2-3.26-.95-3.61-2.57l-.29-1.33c-.35-1.61.44-2.93,1.74-2.93h2.25c1.2-.04,2.73-.85,3.4-1.8l.63-1.02.63-1.01c.6-1.17-.26-2.13-1.91-2.13h-5.15c-1.65,0-3.29-1.05-3.65-2.33s.7-2.41,2.35-2.51l37.69-2.24c1.65-.1,2.99,1.17,2.99,2.82v1.26c0,1.65-1.35,3-3,3h-15.71c-1.65,0-3.95.95-5.12,2.12,0,0-.08.08-1.25,1.12l-1.17,1.04c-1.25.86-.92,1.52.73,1.48,0,0,3.6-.09,6.17-.18,2.57-.09,3.26-.11,3.26-.11,1.65-.05,3.45-1.05,4-2.22l.97-.76c.97-.76,2.06-1.13,3.27-1.13,1.51,0,2.8.53,3.86,1.59,1.06,1.06,1.59,2.34,1.59,3.86s-.53,2.74-1.59,3.82c-1.06,1.08-2.34,1.62-3.86,1.62-1.08,0-2.07-.3-2.98-.91l-.91-.6c-.61-.95-2.36-1.5-3.9-1.23l-1.71.35c-1.71.35-3.36.62-3.36.62-1.63.27-1.76.59-.3.71s2.6.88,2.53,1.68,1.22,1.38,2.87,1.29l10.53-.58c1.65-.09,3,1.19,3,2.84v1c0,1.65-1.35,3-3,3h-10.91c-1.65,0-3.04.63-3.1,1.39s1.25,1.32,2.9,1.22l14.68-.83c1.65-.09,3,1.18,3,2.83v1.78c0,1.65-1.35,3-3,3l-40.86-.06Zm34.33-47.12c0-.64-1.35-1.17-3-1.17h-29.9c-1.65,0-3,1.02-3,2.27s1.35,2.19,2.99,2.08l29.91-1.84c1.65-.1,2.99-.71,2.99-1.35Z"/>
    </g>
  </g>
  <rect class="cls-2" width="321" height="321"/>
</svg>